<svg width="42" height="67" viewBox="0 0 42 67" fill="none" xmlns="http://www.w3.org/2000/svg">
<path d="M20.8 0.000816361C9.49999 0.100816 0.399992 9.30082 0.499992 20.5008C0.599992 31.8008 21.2 66.2008 21.2 66.2008C21.2 66.2008 41.4 31.5008 41.3 20.2008C41.3 9.00082 32.1 -0.0991836 20.8 0.000816361ZM21 29.6008C15.6 29.6008 11.2 25.3008 11.2 19.9008C11.2 14.5008 15.5 10.1008 20.9 10.1008C26.3 10.1008 30.7 14.4008 30.7 19.8008C30.7 25.1008 26.4 29.5008 21 29.6008Z" fill="url(#paint0_linear_12_3506)"/>
<path opacity="0.62" d="M11.4 48.6008C16.4 58.2008 21.2 66.3008 21.2 66.3008C21.2 66.3008 36 40.9008 40.2 26.5008C35.6 38.3008 21.2 48.7008 11.4 48.6008Z" fill="url(#paint1_linear_12_3506)"/>
<defs>
<linearGradient id="paint0_linear_12_3506" x1="0.603256" y1="33.2654" x2="41.4165" y2="32.9838" gradientUnits="userSpaceOnUse">
<stop stop-color="#02C567"/>
<stop offset="0.9999" stop-color="#0D884D"/>
</linearGradient>
<linearGradient id="paint1_linear_12_3506" x1="13.7326" y1="61.9841" x2="35.4793" y2="23.7104" gradientUnits="userSpaceOnUse">
<stop offset="0.1518" stop-color="white"/>
<stop offset="0.8912" stop-color="white" stop-opacity="0"/>
</linearGradient>
</defs>
</svg>
