<svg width="42" height="67" viewBox="0 0 42 67" fill="none" xmlns="http://www.w3.org/2000/svg">
<g clip-path="url(#clip0_12_3473)">
<path d="M20.8 -3.81315e-05C9.5 0.0999619 0.4 9.29996 0.5 20.5C0.6 31.8 21.2 66.2 21.2 66.2C21.2 66.2 41.4 31.5 41.3 20.2C41.3 8.99996 32.1 -0.100038 20.8 -3.81315e-05ZM21 29.6C15.6 29.6 11.2 25.3 11.2 19.9C11.2 14.5 15.5 10.1 20.9 10.1C26.3 10.1 30.7 14.4 30.7 19.8C30.7 25.1 26.4 29.5 21 29.6Z" fill="url(#paint0_linear_12_3473)"/>
<path opacity="0.62" d="M11.4 48.6C16.4 58.2 21.2 66.3 21.2 66.3C21.2 66.3 36 40.9 40.2 26.5C35.6 38.3 21.2 48.7 11.4 48.6Z" fill="url(#paint1_linear_12_3473)"/>
</g>
<defs>
<linearGradient id="paint0_linear_12_3473" x1="0.603264" y1="33.2646" x2="41.4165" y2="32.983" gradientUnits="userSpaceOnUse">
<stop stop-color="#319CD8"/>
<stop offset="0.0001" stop-color="#C5D60C"/>
<stop offset="0.9999" stop-color="#9FAC13"/>
</linearGradient>
<linearGradient id="paint1_linear_12_3473" x1="13.7326" y1="61.9833" x2="35.4793" y2="23.7095" gradientUnits="userSpaceOnUse">
<stop offset="0.1518" stop-color="white"/>
<stop offset="0.8912" stop-color="white" stop-opacity="0"/>
</linearGradient>
<clipPath id="clip0_12_3473">
<rect width="42" height="67.0008" fill="white" transform="translate(0 -0.000854492)"/>
</clipPath>
</defs>
</svg>
