<svg width="199" height="56" viewBox="0 0 199 56" fill="none" xmlns="http://www.w3.org/2000/svg">
<path d="M5.9805 29.2538C5.84354 29.2538 5.70658 29.1145 5.70658 28.9752V14.5805H0.273916C0.0913054 14.5805 0 14.4412 0 14.3019V11.0979C0 10.9122 0.136958 10.8193 0.273916 10.8193H15.2936C15.4763 10.8193 15.5676 10.9586 15.5676 11.0979V14.3019C15.5676 14.4877 15.4306 14.5805 15.2936 14.5805H9.86098V28.9288C9.86098 29.1145 9.72402 29.2074 9.58706 29.2074H5.9805V29.2538Z" fill="white"/>
<path d="M107.192 16.5772C109.703 16.5772 110.571 18.7132 110.571 20.5705V28.9287C110.571 29.1609 110.662 29.2073 110.845 29.2073H114.086C114.314 29.2073 114.36 29.1145 114.36 28.9287V20.2919C114.36 15.8342 111.621 13.0017 107.147 13.0017C102.718 13.0017 99.9337 15.8806 99.9337 20.2919V28.9752C99.9337 29.2073 100.025 29.2538 100.208 29.2538H103.449C103.677 29.2538 103.723 29.1609 103.723 28.9752V20.617C103.814 18.7132 104.636 16.5772 107.192 16.5772Z" fill="white"/>
<path d="M74.6421 29.486C70.2138 29.486 67.4747 26.6071 67.4747 22.1958V20.2455C67.4747 15.8343 70.2138 12.9553 74.6421 12.9553C79.0704 12.9553 81.8096 15.8343 81.8096 20.2455V22.1958C81.8096 26.6071 79.0704 29.486 74.6421 29.486ZM74.6421 16.345C72.953 16.345 71.0812 17.413 71.0812 20.4777V22.0101C71.0812 24.0532 72.0856 26.1427 74.6421 26.1427C76.3313 26.1427 78.203 25.0747 78.203 22.0101V20.4777C78.203 18.3882 77.153 16.345 74.6421 16.345Z" fill="white"/>
<path d="M90.8488 29.486C86.4205 29.486 83.6814 26.6071 83.6814 22.1958V20.2455C83.6814 15.8343 86.4205 12.9553 90.8488 12.9553C95.2771 12.9553 98.0163 15.8343 98.0163 20.2455V22.1958C98.0163 26.6071 95.2771 29.486 90.8488 29.486ZM90.8488 16.4379C89.114 16.4379 87.3792 17.5059 87.3792 20.5706V21.9172C87.3792 23.821 88.201 26.0499 90.8488 26.0499C92.5836 26.0499 94.3184 24.9819 94.3184 21.9172V20.5706C94.2728 18.6203 93.4967 16.4379 90.8488 16.4379Z" fill="white"/>
<path d="M123.764 36.0332C119.793 36.0332 117.556 33.34 117.008 30.7861C116.962 30.6468 117.008 30.6004 117.008 30.5539C117.053 30.5075 117.099 30.5075 117.19 30.5075H120.523C120.66 30.5075 120.706 30.5539 120.797 30.7397C120.888 31.0647 121.39 32.7364 123.719 32.7364C125.727 32.7364 127.006 31.0647 127.006 28.5573V27.5357C126.504 28.5573 124.906 29.3466 123.399 29.3466C119.062 29.3466 116.46 26.4677 116.46 22.0564V20.2919C116.46 15.8806 119.199 13.0017 123.627 13.0017C128.056 13.0017 130.795 15.8806 130.795 20.2919V28.1858C130.795 33.2936 128.375 36.0332 123.764 36.0332ZM123.627 16.345C121.938 16.345 120.067 17.413 120.067 20.4777V21.8707C120.067 23.9138 121.071 26.0034 123.627 26.0034C125.317 26.0034 127.188 24.9354 127.188 21.8707V20.4777C127.188 18.3881 126.184 16.345 123.627 16.345Z" fill="white"/>
<path d="M38.7591 29.486C34.3308 29.486 31.5917 26.6071 31.5917 22.1958V20.2455C31.5917 15.8343 34.3308 12.9553 38.7591 12.9553C43.1418 12.9553 45.9266 15.9736 45.9266 20.3848V22.6601C45.9266 22.753 45.881 22.9852 45.5614 22.9852H35.2895V23.078C35.5635 24.5639 36.5222 26.0963 38.7135 26.0963C39.8092 26.0963 40.8135 25.5855 41.407 24.8426C41.4983 24.7497 41.5896 24.6568 41.8179 24.6568H45.2418C45.3331 24.6568 45.3788 24.7033 45.4244 24.7497C45.4701 24.7961 45.4701 24.8426 45.4244 24.9354C44.6483 27.7679 42.1831 29.486 38.7591 29.486ZM38.8048 16.345C37.07 16.345 35.3352 17.6452 35.3352 19.6883V19.7812H42.2288V19.6883C42.2288 18.1096 40.9961 16.345 38.8048 16.345Z" fill="white"/>
<path d="M21.822 29.3003C17.8045 29.3003 15.2936 26.5607 15.2936 22.103V20.1992C15.2936 15.7879 18.0328 12.9089 22.4611 12.9089C26.9351 12.9554 29.6742 15.8343 29.6742 20.2456V28.9753C29.6742 29.161 29.5373 29.2539 29.4003 29.2539H26.159C25.9764 29.2539 25.8851 29.1146 25.8851 28.9753V27.3965C25.1546 28.6502 23.3285 29.3003 21.822 29.3003ZM22.5068 16.3451C20.8176 16.3451 18.9459 17.4131 18.9459 20.4778V21.9637C18.9459 23.9603 19.9502 26.0035 22.5068 26.0035C25.2003 26.0035 26.0677 23.821 26.0677 21.9637V20.4778C26.022 18.3882 25.0177 16.3451 22.5068 16.3451Z" fill="white"/>
<path d="M58.3898 11.2372L60.9463 23.0316L63.7311 11.1443C63.7768 10.9122 64.005 10.8657 64.2333 10.8657H67.292C67.5659 10.8657 67.6573 11.0515 67.6116 11.2836L63.0463 28.8823C62.955 29.2073 62.9094 29.3467 62.5898 29.3467H59.3028C59.0289 29.3467 58.9376 29.2538 58.8919 28.9752L56.7006 18.0166L54.4636 28.9752C54.418 29.2538 54.3267 29.3467 54.0528 29.3467H50.7658C50.4462 29.3467 50.4005 29.2073 50.3092 28.8823L45.8353 11.2836C45.7896 11.0515 45.8809 10.8657 46.1548 10.8657H49.2136C49.3962 10.8657 49.6244 10.9586 49.7158 11.1443L52.3636 23.0316L54.9658 11.2372C55.0115 11.005 55.1028 10.9122 55.3767 10.9122H57.9789C58.2985 10.8657 58.3441 10.9586 58.3898 11.2372Z" fill="white"/>
<path d="M18.7632 46.574H17.7589V42.1163L16.2523 45.3667H15.5219L13.9697 42.1163V46.574H13.011V39.9338H13.9697L15.8871 44.0665L17.7589 39.9338H18.7632V46.574Z" fill="white"/>
<path d="M29.8112 46.574H25.6568V39.9338H29.8112V40.8161H26.6155V42.7663H29.3547V43.6486H26.6155V45.6917H29.8112V46.574Z" fill="white"/>
<path d="M40.8135 43.1842V43.4164V43.5557C40.8135 44.1129 40.7678 44.5308 40.7222 44.8559C40.6309 45.3202 40.4483 45.6453 40.1744 45.9703C39.9461 46.156 39.7178 46.3418 39.4439 46.4347C39.17 46.5275 38.8504 46.574 38.4852 46.574H36.2026V39.9338H38.4852C39.2157 39.9338 39.7635 40.166 40.1744 40.5375C40.4939 40.8625 40.6765 41.2804 40.7678 41.7912C40.7678 42.0234 40.8135 42.5342 40.8135 43.1842ZM39.8091 43.1842C39.8091 42.627 39.8091 42.2556 39.7635 42.0234C39.7178 41.6983 39.6265 41.4197 39.4439 41.234C39.17 40.9554 38.8048 40.7697 38.3483 40.7697H37.1613V45.5988H38.3483C38.8048 45.5988 39.17 45.4595 39.4439 45.1345C39.5809 44.9488 39.7178 44.6701 39.7635 44.3451C39.8091 44.2058 39.8091 43.7879 39.8091 43.1842Z" fill="white"/>
<path d="M48.3918 39.9338H47.3875V46.574H48.3918V39.9338Z" fill="white"/>
<path d="M59.6224 44.5771C59.5311 45.2272 59.2572 45.738 58.8463 46.1095C58.4354 46.481 57.9332 46.6203 57.2941 46.6203C56.6093 46.6203 56.0615 46.3881 55.5593 45.9237C55.2854 45.6451 55.0571 45.2737 55.0115 44.8093C54.9658 44.5307 54.9202 44.0199 54.9202 43.2305C54.9202 42.4411 54.9658 41.9304 55.0115 41.6518C55.1028 41.2339 55.2854 40.8624 55.5593 40.5373C56.0158 40.073 56.6093 39.8408 57.2941 39.8408C57.8876 39.8408 58.4354 40.0266 58.8463 40.3516C59.2572 40.7231 59.5311 41.2339 59.6224 41.8839H58.618C58.5267 41.5125 58.3898 41.2339 58.1615 41.0481C57.9332 40.8159 57.6137 40.7231 57.2941 40.7231C56.8832 40.7231 56.5637 40.8624 56.3354 41.141C56.1984 41.3267 56.0615 41.5589 56.0158 41.8375C55.9702 42.1161 55.9245 42.5805 55.9245 43.2305C55.9245 43.9271 55.9702 44.3914 56.0158 44.6236C56.0615 44.9022 56.1528 45.0879 56.3354 45.2737C56.5637 45.5523 56.8832 45.6916 57.2941 45.6916C57.6593 45.6916 57.9332 45.5987 58.1615 45.3665C58.3898 45.1808 58.5267 44.9022 58.618 44.5307H59.6224V44.5771Z" fill="white"/>
<path d="M70.9443 46.574H69.8943L69.4377 45.2274H66.8355L66.379 46.574H65.329L67.7486 39.9338H68.5247L70.9443 46.574ZM69.1638 44.3915L68.1594 41.4197L67.1551 44.3915H69.1638Z" fill="white"/>
<path d="M81.1248 46.574H76.9704V39.9338H77.9748V45.6917H81.1248V46.574Z" fill="white"/>
<path d="M92.7206 40.0266H93.6793V44.2986C93.6793 44.8558 93.8162 45.2737 94.0902 45.5523C94.3184 45.8309 94.6836 45.9702 95.0945 45.9702C95.5054 45.9702 95.8706 45.8309 96.0989 45.5523C96.3271 45.2737 96.4641 44.8558 96.5097 44.2986V40.0266H97.4685V44.2986C97.4685 44.6701 97.4228 44.9951 97.2858 45.2737C97.1945 45.5523 97.0119 45.8309 96.8293 46.0631C96.6467 46.2953 96.3728 46.481 96.0989 46.5739C95.825 46.7132 95.4597 46.7596 95.0489 46.7596C94.638 46.7596 94.3184 46.7132 93.9989 46.5739C93.6793 46.4346 93.451 46.2953 93.2684 46.0631C93.0858 45.8309 92.9032 45.5988 92.8119 45.2737C92.7206 44.9951 92.6749 44.6236 92.6749 44.2986V40.0266H92.7206Z" fill="white"/>
<path d="M105.823 43.695C105.595 43.6022 105.412 43.5557 105.184 43.4629C104.955 43.37 104.773 43.2307 104.636 43.0914C104.453 42.9521 104.362 42.7663 104.225 42.5806C104.134 42.3949 104.088 42.1163 104.088 41.8377C104.088 41.559 104.134 41.2804 104.271 41.0483C104.408 40.8161 104.545 40.6304 104.773 40.4446C104.955 40.3053 105.184 40.166 105.458 40.0731C105.686 39.9803 105.96 39.9338 106.234 39.9338C106.508 39.9338 106.736 39.9803 106.964 40.0267C107.147 40.0731 107.375 40.166 107.558 40.2589C107.786 40.3982 107.969 40.5839 108.151 40.8161C108.288 41.0483 108.379 41.3733 108.379 41.7448H107.375C107.329 41.3733 107.238 41.0947 107.01 40.9554C106.782 40.8161 106.553 40.7697 106.279 40.7697C105.96 40.7697 105.686 40.8625 105.458 41.0483C105.229 41.234 105.138 41.4662 105.138 41.7448C105.138 41.9305 105.184 42.1163 105.229 42.2556C105.321 42.3949 105.412 42.4877 105.549 42.5806C105.686 42.6735 105.869 42.7663 106.051 42.8128C106.234 42.9056 106.462 42.9521 106.69 43.0449C106.919 43.1378 107.147 43.2307 107.329 43.3236C107.558 43.4164 107.74 43.5093 107.877 43.6486C108.06 43.7879 108.197 43.9272 108.288 44.1594C108.379 44.3451 108.425 44.6237 108.425 44.9023C108.425 45.2274 108.379 45.5524 108.242 45.7846C108.106 46.0632 107.969 46.2489 107.74 46.3882C107.512 46.574 107.238 46.7133 106.964 46.7597C106.69 46.8061 106.416 46.8526 106.097 46.8526C105.412 46.8526 104.864 46.6668 104.499 46.2954C104.088 45.9239 103.905 45.4131 103.905 44.763H104.91C104.91 45.0416 104.91 45.2274 105.001 45.4131C105.047 45.5988 105.138 45.6917 105.275 45.7846C105.366 45.8774 105.503 45.9239 105.686 45.9703C105.823 46.0168 106.005 46.0168 106.188 46.0168C106.325 46.0168 106.508 46.0168 106.645 45.9703C106.782 45.9239 106.919 45.8774 107.056 45.7846C107.192 45.6917 107.284 45.5988 107.329 45.4595C107.421 45.3202 107.421 45.1809 107.421 44.9952C107.421 44.8095 107.375 44.6702 107.329 44.5773C107.284 44.4844 107.147 44.3451 107.01 44.2522C106.873 44.1594 106.69 44.0665 106.508 44.0201C106.325 43.9272 106.097 43.8343 105.823 43.695Z" fill="white"/>
<path d="M117.784 40.3051L120.158 46.7595H119.153L118.56 45.0414H115.958L115.364 46.7595H114.36L116.734 40.3051C116.734 40.2587 116.78 40.2123 116.825 40.1658C116.871 40.1194 116.916 40.1194 116.962 40.1194H117.601C117.647 40.1194 117.693 40.1194 117.738 40.1658C117.738 40.2123 117.784 40.2587 117.784 40.3051ZM116.277 44.2056H118.24L117.373 41.7446L117.236 41.3267L117.099 41.7446L116.277 44.2056Z" fill="white"/>
<path d="M160.469 1.71802C152.617 4.64339 146.317 10.912 143.349 18.8059C142.756 21.4062 142.208 25.5389 144.08 30.6467C146.682 37.7512 152.434 40.6766 156.908 42.2089C154.945 41.3266 155.676 39.4693 155.858 38.912C157 35.6616 158.05 32.6434 156.634 30.7396C156.36 30.3681 155.995 30.0431 155.63 29.6251C153.439 27.1641 150.289 24.8424 149.969 18.9916C149.421 9.51901 154.991 4.22548 160.469 1.71802Z" fill="url(#paint0_linear_10_12)"/>
<path d="M189.048 16.4842C187.13 4.41128 177.224 1.02156 173.069 0.139303C172.156 0.0464345 171.197 0 170.239 0C166.815 0 163.528 0.603648 160.469 1.71808C154.991 4.22554 149.467 9.51907 150.015 18.9917C150.334 24.8425 153.484 27.1642 155.676 29.6252C155.219 29.0216 154.443 28.0929 155.128 26.8856C156.315 24.796 159.693 18.7595 165.126 15.0912C168.595 12.7695 175.9 10.7728 182.656 15.5091C188.226 19.4096 188.272 26.0962 187.495 28.4643C188.865 24.7032 189.687 20.4776 189.048 16.4842Z" fill="url(#paint1_linear_10_12)"/>
<path d="M144.08 30.6467C142.208 25.5853 142.756 21.4062 143.349 18.8059C142.117 22.0563 141.478 25.5389 141.478 29.2072C141.478 40.5372 147.823 50.3349 157.045 55.2105C162.615 57.4858 165.582 54.0497 166.13 51.4029C166.815 48.2454 165.354 44.252 161.063 43.3233C159.876 43.0911 158.46 42.7197 156.863 42.2089C152.434 40.6766 146.682 37.7512 144.08 30.6467Z" fill="url(#paint2_linear_10_12)"/>
<path d="M173.069 0.13916C177.224 1.02142 187.13 4.3647 189.048 16.4841C189.687 20.5239 189.002 24.7959 187.45 28.5106C186.491 31.111 184.117 34.965 182.611 36.4509C178.228 40.8158 178.319 45.7843 180.739 48.6168C182.839 51.0778 187.724 52.6101 191.422 48.9883C196.124 43.7876 198.954 36.8689 198.954 29.2536C198.954 14.0695 187.632 1.57863 173.069 0.13916Z" fill="url(#paint3_linear_10_12)"/>
<path d="M189.048 16.4841C189.687 20.5239 188.865 24.703 187.45 28.5107C189.048 24.7959 189.687 20.4775 189.048 16.4841Z" fill="url(#paint4_linear_10_12)"/>
<path d="M189.048 16.4841C189.687 20.5239 188.865 24.703 187.45 28.5107C189.048 24.7959 189.687 20.4775 189.048 16.4841Z" fill="url(#paint5_linear_10_12)"/>
<defs>
<linearGradient id="paint0_linear_10_12" x1="153.029" y1="17.8765" x2="163.541" y2="31.0038" gradientUnits="userSpaceOnUse">
<stop stop-color="#309BD7"/>
<stop offset="0.1432" stop-color="#2F98D5"/>
<stop offset="0.288" stop-color="#2C90CF"/>
<stop offset="0.4336" stop-color="#2983C4"/>
<stop offset="0.5799" stop-color="#2571B4"/>
<stop offset="0.7268" stop-color="#225AA1"/>
<stop offset="0.872" stop-color="#1E408D"/>
<stop offset="1" stop-color="#1C257D"/>
</linearGradient>
<linearGradient id="paint1_linear_10_12" x1="184.038" y1="21.4746" x2="153.589" y2="11.505" gradientUnits="userSpaceOnUse">
<stop stop-color="#309BD7"/>
<stop offset="0.0848909" stop-color="#3A9DD4"/>
<stop offset="0.2258" stop-color="#51A4C8"/>
<stop offset="0.4054" stop-color="#6EADB2"/>
<stop offset="0.6166" stop-color="#8FBB8D"/>
<stop offset="0.8516" stop-color="#B3CC4F"/>
<stop offset="1" stop-color="#C8D800"/>
</linearGradient>
<linearGradient id="paint2_linear_10_12" x1="155.855" y1="45.9714" x2="139.395" y2="18.3176" gradientUnits="userSpaceOnUse">
<stop stop-color="#309BD7"/>
<stop offset="0.1432" stop-color="#2F98D5"/>
<stop offset="0.288" stop-color="#2C90CF"/>
<stop offset="0.4336" stop-color="#2983C4"/>
<stop offset="0.5799" stop-color="#2571B4"/>
<stop offset="0.7268" stop-color="#225AA1"/>
<stop offset="0.872" stop-color="#1E408D"/>
<stop offset="1" stop-color="#1C257D"/>
</linearGradient>
<linearGradient id="paint3_linear_10_12" x1="179.362" y1="39.0529" x2="186.79" y2="15.2096" gradientUnits="userSpaceOnUse">
<stop stop-color="#309BD7"/>
<stop offset="0.1432" stop-color="#2F98D5"/>
<stop offset="0.288" stop-color="#2C90CF"/>
<stop offset="0.4336" stop-color="#2983C4"/>
<stop offset="0.5799" stop-color="#2571B4"/>
<stop offset="0.7268" stop-color="#225AA1"/>
<stop offset="0.872" stop-color="#1E408D"/>
<stop offset="1" stop-color="#1C257D"/>
</linearGradient>
<linearGradient id="paint4_linear_10_12" x1="184.163" y1="21.0921" x2="153.714" y2="11.1221" gradientUnits="userSpaceOnUse">
<stop stop-color="#309BD7"/>
<stop offset="0.0848909" stop-color="#3A9DD4"/>
<stop offset="0.2258" stop-color="#51A4C8"/>
<stop offset="0.4054" stop-color="#6EADB2"/>
<stop offset="0.6166" stop-color="#8FBB8D"/>
<stop offset="0.8516" stop-color="#B3CC4F"/>
<stop offset="1" stop-color="#C8D800"/>
</linearGradient>
<linearGradient id="paint5_linear_10_12" x1="182.997" y1="40.1852" x2="190.424" y2="16.3417" gradientUnits="userSpaceOnUse">
<stop stop-color="#309BD7"/>
<stop offset="0.1432" stop-color="#2F98D5"/>
<stop offset="0.288" stop-color="#2C90CF"/>
<stop offset="0.4336" stop-color="#2983C4"/>
<stop offset="0.5799" stop-color="#2571B4"/>
<stop offset="0.7268" stop-color="#225AA1"/>
<stop offset="0.872" stop-color="#1E408D"/>
<stop offset="1" stop-color="#1C257D"/>
</linearGradient>
</defs>
</svg>
