<svg width="150" height="42" viewBox="0 0 150 42" fill="none" xmlns="http://www.w3.org/2000/svg">
<path d="M4.50792 21.9403C4.40468 21.9403 4.30145 21.8358 4.30145 21.7313V10.9353H0.206469C0.0688231 10.9353 0 10.8308 0 10.7263V8.32334C0 8.18403 0.103235 8.11438 0.206469 8.11438H11.5279C11.6655 8.11438 11.7343 8.21886 11.7343 8.32334V10.7263C11.7343 10.8656 11.6311 10.9353 11.5279 10.9353H7.4329V21.6965C7.4329 21.8358 7.32966 21.9054 7.22643 21.9054H4.50792V21.9403Z" fill="white"/>
<path d="M80.7983 12.4328C82.691 12.4328 83.3448 14.0348 83.3448 15.4278V21.6965C83.3448 21.8706 83.4136 21.9054 83.5513 21.9054H85.9945C86.1665 21.9054 86.201 21.8358 86.201 21.6965V15.2189C86.201 11.8756 84.1363 9.75122 80.7639 9.75122C77.426 9.75122 75.3269 11.9104 75.3269 15.2189V21.7313C75.3269 21.9054 75.3957 21.9403 75.5334 21.9403H77.9766C78.1487 21.9403 78.1831 21.8706 78.1831 21.7313V15.4627C78.2519 14.0348 78.8713 12.4328 80.7983 12.4328Z" fill="white"/>
<path d="M56.2629 22.1144C52.925 22.1144 50.8603 19.9552 50.8603 16.6468V15.1841C50.8603 11.8756 52.925 9.71643 56.2629 9.71643C59.6008 9.71643 61.6655 11.8756 61.6655 15.1841V16.6468C61.6655 19.9552 59.6008 22.1144 56.2629 22.1144ZM56.2629 12.2587C54.9897 12.2587 53.5788 13.0597 53.5788 15.3582V16.5075C53.5788 18.0398 54.3359 19.607 56.2629 19.607C57.5361 19.607 58.947 18.806 58.947 16.5075V15.3582C58.947 13.7911 58.1555 12.2587 56.2629 12.2587Z" fill="white"/>
<path d="M68.479 22.1144C65.1411 22.1144 63.0764 19.9552 63.0764 16.6468V15.1841C63.0764 11.8756 65.1411 9.71643 68.479 9.71643C71.8169 9.71643 73.8816 11.8756 73.8816 15.1841V16.6468C73.8816 19.9552 71.8169 22.1144 68.479 22.1144ZM68.479 12.3284C67.1714 12.3284 65.8637 13.1294 65.8637 15.4279V16.4378C65.8637 17.8657 66.4832 19.5373 68.479 19.5373C69.7867 19.5373 71.0943 18.7363 71.0943 16.4378V15.4279C71.0599 13.9652 70.4749 12.3284 68.479 12.3284Z" fill="white"/>
<path d="M93.2897 27.0248C90.2959 27.0248 88.6098 25.0049 88.1968 23.0895C88.1624 22.985 88.1968 22.9502 88.1968 22.9154C88.2312 22.8806 88.2657 22.8806 88.3345 22.8806H90.8465C90.9498 22.8806 90.9842 22.9154 91.053 23.0547C91.1218 23.2985 91.5003 24.5522 93.2553 24.5522C94.7694 24.5522 95.733 23.2985 95.733 21.4179V20.6517C95.3544 21.4179 94.15 22.0099 93.0144 22.0099C89.7454 22.0099 87.7839 19.8507 87.7839 16.5423V15.2189C87.7839 11.9104 89.8486 9.75122 93.1865 9.75122C96.5244 9.75122 98.5891 11.9104 98.5891 15.2189V21.1393C98.5891 24.9701 96.7653 27.0248 93.2897 27.0248ZM93.1865 12.2587C91.9133 12.2587 90.5024 13.0597 90.5024 15.3582V16.403C90.5024 17.9353 91.2595 19.5025 93.1865 19.5025C94.4597 19.5025 95.8706 18.7015 95.8706 16.403V15.3582C95.8706 13.791 95.1135 12.2587 93.1865 12.2587Z" fill="white"/>
<path d="M29.2154 22.1144C25.8775 22.1144 23.8128 19.9552 23.8128 16.6468V15.1841C23.8128 11.8756 25.8775 9.71643 29.2154 9.71643C32.5189 9.71643 34.618 11.9801 34.618 15.2886V16.995C34.618 17.0647 34.5836 17.2388 34.3427 17.2388H26.6001V17.3085C26.8066 18.4229 27.5293 19.5722 29.181 19.5722C30.0069 19.5722 30.7639 19.1891 31.2113 18.6319C31.2801 18.5622 31.3489 18.4926 31.521 18.4926H34.1019C34.1707 18.4926 34.2051 18.5274 34.2395 18.5622C34.2739 18.597 34.2739 18.6319 34.2395 18.7015C33.6545 20.8259 31.7963 22.1144 29.2154 22.1144ZM29.2498 12.2587C27.9422 12.2587 26.6346 13.2338 26.6346 14.7662V14.8358H31.8307V14.7662C31.8307 13.5821 30.9016 12.2587 29.2498 12.2587Z" fill="white"/>
<path d="M16.4487 21.9751C13.4205 21.9751 11.5279 19.9203 11.5279 16.577V15.1492C11.5279 11.8407 13.5926 9.68152 16.9305 9.68152C20.3028 9.71634 22.3675 11.8755 22.3675 15.184V21.7313C22.3675 21.8706 22.2643 21.9402 22.1611 21.9402H19.7178C19.5802 21.9402 19.5114 21.8357 19.5114 21.7313V20.5472C18.9608 21.4875 17.5843 21.9751 16.4487 21.9751ZM16.9649 12.2586C15.6917 12.2586 14.2808 13.0596 14.2808 15.3581V16.4726C14.2808 17.9701 15.0379 19.5024 16.9649 19.5024C18.9952 19.5024 19.649 17.8656 19.649 16.4726V15.3581C19.6146 13.791 18.8576 12.2586 16.9649 12.2586Z" fill="white"/>
<path d="M44.0124 8.42778L45.9394 17.2735L48.0386 8.35813C48.073 8.184 48.245 8.14917 48.4171 8.14917H50.7227C50.9291 8.14917 50.998 8.28847 50.9635 8.4626L47.5224 21.6616C47.4536 21.9054 47.4191 22.0099 47.1783 22.0099H44.7006C44.4942 22.0099 44.4253 21.9402 44.3909 21.7313L42.7392 13.5124L41.053 21.7313C41.0186 21.9402 40.9498 22.0099 40.7433 22.0099H38.2657C38.0248 22.0099 37.9904 21.9054 37.9216 21.6616L34.5492 8.4626C34.5148 8.28847 34.5836 8.14917 34.7901 8.14917H37.0957C37.2333 8.14917 37.4054 8.21882 37.4742 8.35813L39.4701 17.2735L41.4315 8.42778C41.4659 8.25365 41.5348 8.184 41.7412 8.184H43.7027C43.9436 8.14917 43.978 8.21882 44.0124 8.42778Z" fill="white"/>
<path d="M14.1432 34.9303H13.3861V31.587L12.2505 34.0248H11.6999L10.53 31.587V34.9303H9.80731V29.9502H10.53L11.9752 33.0497L13.3861 29.9502H14.1432V34.9303Z" fill="white"/>
<path d="M22.4707 34.9303H19.3393V29.9502H22.4707V30.6119H20.0619V32.0746H22.1266V32.7363H20.0619V34.2686H22.4707V34.9303Z" fill="white"/>
<path d="M30.764 32.388V32.5621V32.6666C30.764 33.0845 30.7295 33.398 30.6951 33.6417C30.6263 33.99 30.4887 34.2338 30.2822 34.4776C30.1101 34.6169 29.9381 34.7562 29.7316 34.8258C29.5251 34.8955 29.2843 34.9303 29.009 34.9303H27.2884V29.9502H29.009C29.5596 29.9502 29.9725 30.1243 30.2822 30.4029C30.5231 30.6467 30.6607 30.9601 30.7295 31.3432C30.7295 31.5174 30.764 31.9004 30.764 32.388ZM30.0069 32.388C30.0069 31.9701 30.0069 31.6915 29.9725 31.5174C29.9381 31.2736 29.8693 31.0646 29.7316 30.9253C29.5251 30.7164 29.2498 30.5771 28.9057 30.5771H28.011V34.1989H28.9057C29.2498 34.1989 29.5251 34.0945 29.7316 33.8507C29.8348 33.7114 29.9381 33.5024 29.9725 33.2586C30.0069 33.1542 30.0069 32.8407 30.0069 32.388Z" fill="white"/>
<path d="M36.4763 29.9502H35.7192V34.9303H36.4763V29.9502Z" fill="white"/>
<path d="M44.9415 33.4327C44.8727 33.9203 44.6662 34.3034 44.3565 34.582C44.0468 34.8606 43.6683 34.9651 43.1865 34.9651C42.6704 34.9651 42.2574 34.7909 41.8789 34.4427C41.6724 34.2337 41.5004 33.9551 41.4659 33.6069C41.4315 33.3979 41.3971 33.0148 41.3971 32.4228C41.3971 31.8307 41.4315 31.4477 41.4659 31.2387C41.5348 30.9253 41.6724 30.6467 41.8789 30.4029C42.223 30.0546 42.6704 29.8805 43.1865 29.8805C43.6339 29.8805 44.0468 30.0198 44.3565 30.2636C44.6662 30.5422 44.8727 30.9253 44.9415 31.4128H44.1845C44.1156 31.1342 44.0124 30.9253 43.8403 30.786C43.6683 30.6118 43.4274 30.5422 43.1865 30.5422C42.8768 30.5422 42.6359 30.6467 42.4639 30.8556C42.3606 30.9949 42.2574 31.169 42.223 31.378C42.1886 31.587 42.1542 31.9352 42.1542 32.4228C42.1542 32.9452 42.1886 33.2934 42.223 33.4676C42.2574 33.6765 42.3262 33.8158 42.4639 33.9551C42.6359 34.1641 42.8768 34.2685 43.1865 34.2685C43.4618 34.2685 43.6683 34.1989 43.8403 34.0248C44.0124 33.8855 44.1156 33.6765 44.1845 33.3979H44.9415V33.4327Z" fill="white"/>
<path d="M53.4756 34.9303H52.6841L52.34 33.9203H50.3785L50.0344 34.9303H49.243L51.0668 29.9502H51.6518L53.4756 34.9303ZM52.1335 33.2935L51.3765 31.0646L50.6194 33.2935H52.1335Z" fill="white"/>
<path d="M61.1493 34.9303H58.0179V29.9502H58.7749V34.2686H61.1493V34.9303Z" fill="white"/>
<path d="M69.8899 30.0199H70.6125V33.2239C70.6125 33.6418 70.7158 33.9552 70.9222 34.1642C71.0943 34.3731 71.3696 34.4776 71.6793 34.4776C71.989 34.4776 72.2643 34.3731 72.4363 34.1642C72.6084 33.9552 72.7116 33.6418 72.746 33.2239V30.0199H73.4687V33.2239C73.4687 33.5025 73.4343 33.7463 73.331 33.9552C73.2622 34.1642 73.1246 34.3731 72.9869 34.5473C72.8493 34.7214 72.6428 34.8607 72.4363 34.9304C72.2299 35.0348 71.9546 35.0697 71.6449 35.0697C71.3352 35.0697 71.0943 35.0348 70.8534 34.9304C70.6125 34.8259 70.4405 34.7214 70.3028 34.5473C70.1652 34.3731 70.0275 34.199 69.9587 33.9552C69.8899 33.7463 69.8555 33.4677 69.8555 33.2239V30.0199H69.8899Z" fill="white"/>
<path d="M79.766 32.7711C79.5939 32.7014 79.4563 32.6666 79.2842 32.597C79.1122 32.5273 78.9745 32.4228 78.8713 32.3184C78.7336 32.2139 78.6648 32.0746 78.5616 31.9353C78.4928 31.796 78.4584 31.587 78.4584 31.3781C78.4584 31.1691 78.4928 30.9601 78.596 30.786C78.6992 30.6119 78.8025 30.4726 78.9745 30.3333C79.1122 30.2288 79.2842 30.1243 79.4907 30.0547C79.6628 29.985 79.8692 29.9502 80.0757 29.9502C80.2822 29.9502 80.4542 29.985 80.6263 30.0198C80.7639 30.0547 80.936 30.1243 81.0736 30.194C81.2457 30.2985 81.3833 30.4378 81.521 30.6119C81.6242 30.786 81.693 31.0298 81.693 31.3084H80.936C80.9016 31.0298 80.8328 30.8208 80.6607 30.7164C80.4886 30.6119 80.3166 30.5771 80.1101 30.5771C79.8692 30.5771 79.6628 30.6467 79.4907 30.786C79.3186 30.9253 79.2498 31.0994 79.2498 31.3084C79.2498 31.4477 79.2842 31.587 79.3186 31.6915C79.3875 31.796 79.4563 31.8656 79.5595 31.9353C79.6628 32.0049 79.8004 32.0746 79.9381 32.1094C80.0757 32.179 80.2478 32.2139 80.4198 32.2835C80.5919 32.3532 80.7639 32.4228 80.9016 32.4925C81.0736 32.5621 81.2113 32.6318 81.3145 32.7363C81.4522 32.8407 81.5554 32.9452 81.6242 33.1193C81.693 33.2586 81.7275 33.4676 81.7275 33.6766C81.7275 33.9203 81.6931 34.1641 81.5898 34.3383C81.4866 34.5472 81.3833 34.6865 81.2113 34.791C81.0392 34.9303 80.8328 35.0348 80.6263 35.0696C80.4198 35.1044 80.2133 35.1392 79.9725 35.1392C79.4563 35.1392 79.0434 34.9999 78.7681 34.7213C78.4584 34.4427 78.3207 34.0596 78.3207 33.5721H79.0778C79.0778 33.781 79.0778 33.9203 79.1466 34.0596C79.181 34.1989 79.2498 34.2686 79.3531 34.3383C79.4219 34.4079 79.5251 34.4427 79.6628 34.4776C79.766 34.5124 79.9036 34.5124 80.0413 34.5124C80.1445 34.5124 80.2822 34.5124 80.3854 34.4776C80.4886 34.4427 80.5919 34.4079 80.6951 34.3383C80.7983 34.2686 80.8672 34.1989 80.9016 34.0945C80.9704 33.99 80.9704 33.8855 80.9704 33.7462C80.9704 33.6069 80.936 33.5024 80.9016 33.4328C80.8672 33.3631 80.7639 33.2587 80.6607 33.189C80.5575 33.1193 80.4198 33.0497 80.2822 33.0149C80.1445 32.9452 79.9725 32.8756 79.766 32.7711Z" fill="white"/>
<path d="M88.7818 30.2288L90.5712 35.0696H89.8142L89.3668 33.781H87.4054L86.958 35.0696H86.201L87.9904 30.2288C87.9904 30.194 88.0248 30.1591 88.0592 30.1243C88.0936 30.0895 88.128 30.0895 88.1624 30.0895H88.6442C88.6786 30.0895 88.713 30.0895 88.7474 30.1243C88.7474 30.1591 88.7818 30.194 88.7818 30.2288ZM87.6462 33.1542H89.1259L88.4721 31.3084L88.3689 30.995L88.2657 31.3084L87.6462 33.1542Z" fill="white"/>
<path d="M120.957 1.28857C115.038 3.4826 110.289 8.1841 108.052 14.1045C107.605 16.0547 107.192 19.1542 108.603 22.9851C110.564 28.3134 114.9 30.5075 118.273 31.6567C116.793 30.995 117.343 29.602 117.481 29.1841C118.341 26.7463 119.133 24.4826 118.066 23.0547C117.86 22.7761 117.584 22.5324 117.309 22.2189C115.657 20.3731 113.283 18.6319 113.042 14.2438C112.629 7.13932 116.827 3.16917 120.957 1.28857Z" fill="url(#paint0_linear_22_17)"/>
<path d="M142.498 12.3632C141.053 3.30846 133.586 0.766169 130.454 0.104478C129.766 0.0348259 129.043 0 128.321 0C125.74 0 123.262 0.452736 120.957 1.28856C116.827 3.16915 112.663 7.13931 113.076 14.2438C113.317 18.6318 115.692 20.3731 117.343 22.2189C116.999 21.7662 116.414 21.0697 116.931 20.1642C117.825 18.597 120.372 14.0697 124.467 11.3184C127.082 9.57712 132.588 8.0796 137.681 11.6318C141.879 14.5572 141.913 19.5721 141.328 21.3483C142.361 18.5274 142.98 15.3582 142.498 12.3632Z" fill="url(#paint1_linear_22_17)"/>
<path d="M108.603 22.9851C107.192 19.1891 107.605 16.0547 108.052 14.1045C107.123 16.5423 106.641 19.1542 106.641 21.9055C106.641 30.403 111.425 37.7513 118.376 41.408C122.574 43.1144 124.811 40.5373 125.224 38.5522C125.74 36.1841 124.639 33.1891 121.404 32.4925C120.509 32.3184 119.443 32.0398 118.238 31.6567C114.9 30.5075 110.564 28.3134 108.603 22.9851Z" fill="url(#paint2_linear_22_17)"/>
<path d="M130.454 0.104492C133.586 0.766184 141.053 3.27365 142.498 12.3632C142.98 15.3931 142.464 18.597 141.294 21.3831C140.571 23.3334 138.782 26.2239 137.646 27.3383C134.343 30.612 134.412 34.3383 136.235 36.4627C137.818 38.3085 141.5 39.4577 144.288 36.7413C147.832 32.8408 149.966 27.6518 149.966 21.9403C149.966 10.5523 141.432 1.18409 130.454 0.104492Z" fill="url(#paint3_linear_22_17)"/>
<path d="M142.498 12.3632C142.98 15.393 142.361 18.5273 141.294 21.3831C142.498 18.597 142.98 15.3582 142.498 12.3632Z" fill="url(#paint4_linear_22_17)"/>
<path d="M142.498 12.3632C142.98 15.393 142.361 18.5273 141.294 21.3831C142.498 18.597 142.98 15.3582 142.498 12.3632Z" fill="url(#paint5_linear_22_17)"/>
<defs>
<linearGradient id="paint0_linear_22_17" x1="115.348" y1="13.4074" x2="123.224" y2="23.2914" gradientUnits="userSpaceOnUse">
<stop stop-color="#309BD7"/>
<stop offset="0.1432" stop-color="#2F98D5"/>
<stop offset="0.288" stop-color="#2C90CF"/>
<stop offset="0.4336" stop-color="#2983C4"/>
<stop offset="0.5799" stop-color="#2571B4"/>
<stop offset="0.7268" stop-color="#225AA1"/>
<stop offset="0.872" stop-color="#1E408D"/>
<stop offset="1" stop-color="#1C257D"/>
</linearGradient>
<linearGradient id="paint1_linear_22_17" x1="138.722" y1="16.106" x2="115.793" y2="8.56078" gradientUnits="userSpaceOnUse">
<stop stop-color="#309BD7"/>
<stop offset="0.0848909" stop-color="#3A9DD4"/>
<stop offset="0.2258" stop-color="#51A4C8"/>
<stop offset="0.4054" stop-color="#6EADB2"/>
<stop offset="0.6166" stop-color="#8FBB8D"/>
<stop offset="0.8516" stop-color="#B3CC4F"/>
<stop offset="1" stop-color="#C8D800"/>
</linearGradient>
<linearGradient id="paint2_linear_22_17" x1="117.478" y1="34.4786" x2="105.163" y2="13.684" gradientUnits="userSpaceOnUse">
<stop stop-color="#309BD7"/>
<stop offset="0.1432" stop-color="#2F98D5"/>
<stop offset="0.288" stop-color="#2C90CF"/>
<stop offset="0.4336" stop-color="#2983C4"/>
<stop offset="0.5799" stop-color="#2571B4"/>
<stop offset="0.7268" stop-color="#225AA1"/>
<stop offset="0.872" stop-color="#1E408D"/>
<stop offset="1" stop-color="#1C257D"/>
</linearGradient>
<linearGradient id="paint3_linear_22_17" x1="135.198" y1="29.2898" x2="140.745" y2="11.3915" gradientUnits="userSpaceOnUse">
<stop stop-color="#309BD7"/>
<stop offset="0.1432" stop-color="#2F98D5"/>
<stop offset="0.288" stop-color="#2C90CF"/>
<stop offset="0.4336" stop-color="#2983C4"/>
<stop offset="0.5799" stop-color="#2571B4"/>
<stop offset="0.7268" stop-color="#225AA1"/>
<stop offset="0.872" stop-color="#1E408D"/>
<stop offset="1" stop-color="#1C257D"/>
</linearGradient>
<linearGradient id="paint4_linear_22_17" x1="138.817" y1="15.8192" x2="115.887" y2="8.2736" gradientUnits="userSpaceOnUse">
<stop stop-color="#309BD7"/>
<stop offset="0.0848909" stop-color="#3A9DD4"/>
<stop offset="0.2258" stop-color="#51A4C8"/>
<stop offset="0.4054" stop-color="#6EADB2"/>
<stop offset="0.6166" stop-color="#8FBB8D"/>
<stop offset="0.8516" stop-color="#B3CC4F"/>
<stop offset="1" stop-color="#C8D800"/>
</linearGradient>
<linearGradient id="paint5_linear_22_17" x1="137.937" y1="30.1389" x2="143.485" y2="12.2406" gradientUnits="userSpaceOnUse">
<stop stop-color="#309BD7"/>
<stop offset="0.1432" stop-color="#2F98D5"/>
<stop offset="0.288" stop-color="#2C90CF"/>
<stop offset="0.4336" stop-color="#2983C4"/>
<stop offset="0.5799" stop-color="#2571B4"/>
<stop offset="0.7268" stop-color="#225AA1"/>
<stop offset="0.872" stop-color="#1E408D"/>
<stop offset="1" stop-color="#1C257D"/>
</linearGradient>
</defs>
</svg>
